<?xml version="1.0" standalone="no"?>
<!DOCTYPE svg PUBLIC "-//W3C//DTD SVG 20010904//EN"
 "http://www.w3.org/TR/2001/REC-SVG-20010904/DTD/svg10.dtd">
<svg version="1.0" xmlns="http://www.w3.org/2000/svg"
 width="512.000000pt" height="512.000000pt" viewBox="0 0 512.000000 512.000000"
 preserveAspectRatio="xMidYMid meet">
<metadata>
Created by potrace 1.16, written by Peter Selinger 2001-2019
</metadata>
<g transform="translate(0.000000,512.000000) scale(0.100000,-0.100000)"
fill="#000000" stroke="none">
<path d="M730 4205 c-227 -49 -407 -232 -455 -460 -22 -104 -22 -2266 0 -2370
48 -231 229 -412 460 -460 105 -22 3545 -22 3650 0 231 48 412 229 460 460 22
104 22 2266 0 2370 -43 208 -187 370 -392 442 l-78 28 -1790 2 c-1504 1 -1800
-1 -1855 -12z m3579 -321 c29 -6 -8 -37 -798 -669 -523 -419 -842 -667 -866
-675 -48 -16 -122 -16 -170 0 -24 8 -343 257 -867 676 -672 537 -824 663 -806
667 36 7 3472 8 3507 1z m-2882 -952 c493 -394 826 -653 863 -672 86 -43 161
-60 270 -60 109 0 184 17 270 60 37 19 370 278 863 672 441 352 810 648 820
656 17 15 17 -32 15 -1074 l-3 -1089 -22 -41 c-28 -53 -74 -99 -127 -127 l-41
-22 -1775 0 -1775 0 -41 22 c-53 28 -99 74 -127 127 l-22 41 -3 1089 c-2 1042
-2 1089 15 1074 10 -8 379 -304 820 -656z"/>
</g>
</svg>
