<?xml version="1.0" standalone="no"?>
<!DOCTYPE svg PUBLIC "-//W3C//DTD SVG 20010904//EN"
 "http://www.w3.org/TR/2001/REC-SVG-20010904/DTD/svg10.dtd">
<svg version="1.0" xmlns="http://www.w3.org/2000/svg"
 width="512.000000pt" height="512.000000pt" viewBox="0 0 512.000000 512.000000"
 preserveAspectRatio="xMidYMid meet">
<metadata>
Created by potrace 1.16, written by Peter Selinger 2001-2019
</metadata>
<g transform="translate(0.000000,512.000000) scale(0.100000,-0.100000)"
fill="#000000" stroke="none">
<path d="M4745 4779 c-71 -17 -4528 -1488 -4571 -1508 -109 -51 -174 -155
-174 -277 0 -102 22 -158 89 -224 55 -54 69 -60 630 -305 l575 -251 168 -778
c92 -428 172 -793 178 -812 16 -47 47 -82 87 -99 44 -19 74 -19 116 -1 18 7
229 160 470 340 l437 327 497 -407 c273 -224 512 -413 531 -421 89 -37 201
-35 282 7 40 21 111 93 133 137 9 16 221 901 471 1968 343 1456 456 1953 456
2000 0 86 -23 146 -81 209 -75 82 -192 120 -294 95z m62 -331 c-217 -935 -894
-3798 -897 -3798 -4 0 -1506 1226 -1538 1255 -2 1 355 377 792 834 853 892
826 861 810 947 -8 42 -44 89 -87 110 -39 21 -101 14 -159 -16 -24 -12 -552
-305 -1175 -651 l-1132 -629 -555 242 c-305 134 -552 245 -550 248 7 7 4465
1478 4483 1479 9 1 11 -6 8 -21z m-2315 -1959 l-489 -511 -31 -101 c-17 -56
-59 -201 -93 -322 -34 -121 -65 -223 -68 -227 -3 -4 -51 200 -105 453 -54 253
-96 462 -93 465 9 9 1352 753 1360 754 4 0 -212 -230 -481 -511z m-114 -994
c67 -54 119 -102 114 -106 -35 -31 -415 -310 -418 -307 -2 3 31 124 73 271 68
240 77 265 92 254 10 -7 72 -57 139 -112z"/>
</g>
</svg>
