<?xml version="1.0" standalone="no"?>
<!DOCTYPE svg PUBLIC "-//W3C//DTD SVG 20010904//EN"
 "http://www.w3.org/TR/2001/REC-SVG-20010904/DTD/svg10.dtd">
<svg version="1.0" xmlns="http://www.w3.org/2000/svg"
 width="512.000000pt" height="512.000000pt" viewBox="0 0 512.000000 512.000000"
 preserveAspectRatio="xMidYMid meet">
<metadata>
Created by potrace 1.16, written by Peter Selinger 2001-2019
</metadata>
<g transform="translate(0.000000,512.000000) scale(0.100000,-0.100000)"
fill="#000000" stroke="none">
<path d="M1830 4453 c-357 -54 -664 -169 -1025 -386 -139 -83 -151 -98 -264
-317 -252 -489 -431 -1170 -521 -1977 -24 -212 -25 -323 -6 -361 20 -38 173
-184 286 -271 392 -304 814 -470 1206 -475 122 -1 122 -1 158 29 19 17 124
143 232 280 127 163 202 249 212 248 213 -24 632 -27 849 -5 l71 8 206 -262
c114 -144 219 -270 234 -280 23 -16 45 -19 147 -18 391 5 814 171 1205 475
113 87 266 233 286 271 19 38 18 149 -6 361 -89 801 -267 1481 -515 1966 -99
193 -134 244 -202 287 -350 225 -765 388 -1079 424 -115 13 -167 5 -202 -33
-13 -13 -78 -131 -146 -262 l-124 -238 -272 0 -272 0 -124 238 c-68 131 -133
249 -146 262 -34 36 -102 49 -188 36z m54 -437 c36 -68 66 -127 66 -132 0 -5
-47 -18 -105 -27 -329 -56 -777 -206 -844 -283 -98 -111 -6 -274 141 -251 18
2 94 30 168 60 727 301 1777 301 2500 0 150 -62 218 -75 268 -49 90 46 108
178 34 249 -77 73 -530 222 -836 273 -58 10 -106 22 -106 27 0 5 30 65 66 133
l65 123 32 -5 c215 -39 486 -144 741 -288 158 -89 151 -82 262 -311 219 -454
379 -1095 459 -1840 l17 -150 -44 -39 c-351 -314 -710 -487 -1098 -529 l-45
-5 -113 144 c-62 80 -115 151 -118 157 -3 8 37 22 118 41 362 85 819 292 895
405 56 83 6 209 -91 231 -53 12 -97 -2 -189 -58 -298 -181 -688 -304 -1137
-359 -202 -24 -658 -24 -860 0 -448 54 -840 178 -1137 359 -92 56 -136 70
-189 58 -97 -22 -147 -148 -91 -231 76 -113 533 -320 895 -405 81 -19 121 -33
118 -41 -3 -6 -56 -77 -118 -157 l-113 -145 -40 5 c-394 47 -756 220 -1093
521 l-53 48 16 155 c58 561 182 1128 336 1549 28 75 90 218 140 318 101 206
88 192 284 301 202 112 428 202 620 247 55 13 103 24 107 24 4 1 36 -55 72
-123z"/>
<path d="M1718 3075 c-284 -78 -461 -400 -393 -718 41 -195 187 -367 361 -427
296 -102 605 84 689 415 19 76 19 222 -1 305 -49 210 -215 386 -404 429 -61
14 -195 12 -252 -4z m242 -329 c46 -30 95 -101 111 -161 16 -59 6 -174 -19
-227 -59 -121 -176 -176 -277 -129 -157 73 -203 307 -90 462 66 92 184 115
275 55z"/>
<path d="M3146 3079 c-139 -34 -285 -155 -349 -290 -47 -97 -67 -183 -67 -294
-1 -402 353 -686 704 -565 220 75 376 310 376 565 0 146 -61 314 -150 417 -48
56 -155 129 -225 153 -58 21 -229 29 -289 14z m212 -320 c87 -43 149 -168 140
-283 -15 -188 -165 -310 -303 -247 -51 23 -99 72 -128 130 -32 66 -32 217 0
277 69 129 181 176 291 123z"/>
</g>
</svg>
